<?xml version="1.0" standalone="no"?>
<!DOCTYPE svg PUBLIC "-//W3C//DTD SVG 20010904//EN"
 "http://www.w3.org/TR/2001/REC-SVG-20010904/DTD/svg10.dtd">
<svg version="1.0" xmlns="http://www.w3.org/2000/svg"
 width="552.000000pt" height="552.000000pt" viewBox="0 0 552.000000 552.000000"
 preserveAspectRatio="xMidYMid meet">
<metadata>
Created by potrace 1.11, written by Peter Selinger 2001-2013
</metadata>
<g transform="translate(0.000000,552.000000) scale(0.100000,-0.100000)"
fill="#000000" stroke="none">
<path d="M739 5096 c-2 -2 -17 -7 -34 -10 -148 -26 -278 -95 -387 -206 -78
-79 -125 -149 -161 -241 -60 -151 -57 -39 -54 -1894 1 -935 6 -1716 11 -1735
21 -89 90 -250 107 -250 5 0 9 -7 9 -16 0 -9 39 -55 88 -103 104 -102 200
-158 336 -195 l91 -26 2070 1 c2297 1 2132 -4 2281 70 140 69 248 194 300 349
18 53 19 115 19 1425 0 754 -3 1384 -7 1400 -4 17 -9 42 -12 56 -25 120 -150
269 -286 342 -151 82 5 76 -2178 77 -1306 0 -1950 3 -1963 10 -27 15 -34 55
-15 85 l16 25 1943 1 c1068 0 1957 2 1976 5 82 10 177 99 201 187 15 55 8 158
-15 240 -7 24 -56 126 -68 142 -57 75 -76 96 -120 133 -65 53 -159 99 -240
117 -51 11 -410 14 -1983 14 -1057 0 -1923 -1 -1925 -3z m3737 -2631 c70 -44
108 -118 101 -198 -3 -32 -11 -64 -17 -72 -7 -8 -9 -15 -6 -15 22 0 -55 -74
-100 -96 -180 -88 -369 90 -296 280 48 122 203 172 318 101z"/>
</g>
</svg>
